<?xml version="1.0" encoding="utf-8"?>
<!-- Generator: Adobe Illustrator 19.1.0, SVG Export Plug-In . SVG Version: 6.00 Build 0)  -->
<svg version="1.1" id="Layer_1" xmlns="http://www.w3.org/2000/svg" xmlns:xlink="http://www.w3.org/1999/xlink" x="0px" y="0px"
	 viewBox="0 0 142.1 59.6" style="enable-background:new 0 0 142.1 59.6;" xml:space="preserve">
<style type="text/css">
	.st0{fill:#FF671B;}
</style>
<g>
	<g>
		<path d="M12.1,22.1h9.1V25h-2.1c-0.8,4.3-4,7.2-9.3,7.2c-6.2,0-9.8-4.8-9.8-10c0-5.2,3.8-10,9.8-10c4.5,0,7.8,2.8,8.1,6.2h-3.2
			c-0.3-1.9-2.3-3.4-5-3.4c-4.1,0-6.6,3.5-6.6,7.2c0,3.7,2.3,7.2,7,7.2c3.2,0,5.2-2.1,5.6-4.4h-3.7V22.1z"/>
		<path d="M22.4,25.4c0-3.6,2.6-6.7,6.7-6.7c4.1,0,6.7,3.1,6.7,6.7c0,3.6-2.6,6.7-6.7,6.7C25.1,32,22.4,29,22.4,25.4 M32.9,25.4
			c0-2.2-1.5-4-3.8-4c-2.2,0-3.7,1.9-3.7,4c0,2.2,1.5,4,3.7,4C31.4,29.4,32.9,27.5,32.9,25.4"/>
		<path d="M43.9,12.6c6.3,0,9.9,4.7,9.9,9.5s-3.6,9.5-9.9,9.5h-6.2V12.6H43.9z M40.8,15.4v13.5h3.1c4.3,0,6.7-3.3,6.7-6.7
			s-2.4-6.7-6.7-6.7H40.8z"/>
		<path d="M68.5,19v12.7h-3V30c-0.8,1.3-2.5,2-3.9,2c-3.9,0-6.5-3.1-6.5-6.7s2.6-6.7,6.5-6.7c1.5,0,3.1,0.8,3.9,2V19H68.5z
			 M65.5,25.4c0-2.2-1.5-4-3.8-4c-2.2,0-3.7,1.9-3.7,4s1.5,4,3.7,4C64.1,29.4,65.5,27.5,65.5,25.4"/>
		<path d="M81.1,30c-0.8,1.3-2.5,2-3.9,2c-3.9,0-6.5-3.1-6.5-6.7s2.6-6.7,6.5-6.7c1.5,0,3.1,0.8,3.9,2v-8.1h3v19.1h-3V30z
			 M81.1,25.4c0-2.2-1.5-4-3.8-4c-2.2,0-3.7,1.9-3.7,4c0,2.2,1.5,4,3.7,4C79.6,29.4,81.1,27.5,81.1,25.4"/>
		<path d="M96.5,30c-0.8,1.3-2.5,2-3.9,2c-3.9,0-6.5-3.1-6.5-6.7s2.6-6.7,6.5-6.7c1.5,0,3.1,0.8,3.9,2v-8.1h3v19.1h-3V30z
			 M96.5,25.4c0-2.2-1.5-4-3.8-4c-2.2,0-3.7,1.9-3.7,4c0,2.2,1.5,4,3.7,4C95.1,29.4,96.5,27.5,96.5,25.4"/>
		<path d="M102.3,33.2h2.9c0,1.4,1,2.6,3,2.6c2.1,0,3.2-1,3.2-3.4v-2.4c-0.8,1.4-2.3,2.1-4.1,2.1c-1.8,0-3.1-0.7-3.8-1.7
			c-0.6-1-0.8-2-0.8-3.8V19h3v6.6c0,2.2,0.6,3.8,2.8,3.8c2.1,0,3.1-1.7,3.1-3.8V19h3v13.3c0,4.3-2.4,6.1-6.5,6.1
			C104.6,38.4,102.3,35.9,102.3,33.2"/>
		<path d="M118.4,21.7c-0.3,0-0.7-0.1-1-0.2c-0.3-0.1-0.6-0.3-0.8-0.5c-0.2-0.2-0.4-0.5-0.5-0.8c-0.1-0.3-0.2-0.6-0.2-1
			c0-0.3,0.1-0.7,0.2-1c0.1-0.3,0.3-0.6,0.5-0.8c0.2-0.2,0.5-0.4,0.8-0.5c0.3-0.1,0.6-0.2,1-0.2c0.3,0,0.7,0.1,1,0.2
			c0.3,0.1,0.6,0.3,0.8,0.5c0.2,0.2,0.4,0.5,0.5,0.8c0.1,0.3,0.2,0.6,0.2,1c0,0.3-0.1,0.7-0.2,1c-0.1,0.3-0.3,0.6-0.5,0.8
			c-0.2,0.2-0.5,0.4-0.8,0.5C119.1,21.6,118.8,21.7,118.4,21.7 M118.4,21.4c0.3,0,0.6-0.1,0.8-0.2c0.3-0.1,0.5-0.3,0.7-0.5
			c0.2-0.2,0.3-0.4,0.4-0.7c0.1-0.3,0.2-0.5,0.2-0.8c0-0.3-0.1-0.6-0.2-0.8c-0.1-0.3-0.2-0.5-0.4-0.7c-0.2-0.2-0.4-0.3-0.7-0.5
			c-0.3-0.1-0.5-0.2-0.8-0.2s-0.6,0.1-0.8,0.2c-0.3,0.1-0.5,0.3-0.7,0.5c-0.2,0.2-0.3,0.4-0.4,0.7c-0.1,0.3-0.2,0.5-0.2,0.8
			c0,0.3,0.1,0.6,0.2,0.8c0.1,0.3,0.2,0.5,0.4,0.7c0.2,0.2,0.4,0.3,0.7,0.5C117.8,21.3,118.1,21.4,118.4,21.4 M119.7,20.6h-0.4
			l-0.8-1.3h-0.6v1.3h-0.3v-2.8h1.2c0.4,0,0.6,0.1,0.8,0.2c0.1,0.1,0.2,0.3,0.2,0.5c0,0.1,0,0.3-0.1,0.3c0,0.1-0.1,0.2-0.2,0.2
			c-0.1,0.1-0.2,0.1-0.3,0.1c-0.1,0-0.2,0-0.3,0L119.7,20.6z M118.4,19h0.3c0.1,0,0.2,0,0.3,0c0.1,0,0.2-0.1,0.2-0.1
			c0.1-0.1,0.1-0.2,0.1-0.3c0-0.1,0-0.2-0.1-0.3c0-0.1-0.1-0.1-0.2-0.1c-0.1,0-0.1-0.1-0.2-0.1c-0.1,0-0.2,0-0.2,0h-0.8v1H118.4z"/>
		<g>
			<g>
				<path class="st0" d="M1.1,40.1h6.8c4.1,0,6.7,3.1,6.7,6.7s-2.6,6.7-6.7,6.7H4.2v5.7H1.1V40.1z M11.5,46.7c0-2.1-1.4-3.9-3.6-3.9
					H4.2v7.7h3.7C10.1,50.6,11.5,48.8,11.5,46.7z"/>
				<path class="st0" d="M24.3,49.2c-0.5-0.1-0.7-0.1-1.2-0.1c-2.5,0-3.9,1.4-3.9,4.6v5.5h-3V46.4h3v2c0.6-1.2,2.2-2.2,3.9-2.2
					c0.5,0,0.8,0.1,1.2,0.2V49.2z"/>
				<path class="st0" d="M24.6,52.8c0-3.6,2.6-6.7,6.7-6.7c4.1,0,6.7,3.1,6.7,6.7c0,3.6-2.6,6.7-6.7,6.7
					C27.3,59.4,24.6,56.4,24.6,52.8z M35.1,52.8c0-2.2-1.5-4-3.8-4c-2.2,0-3.7,1.9-3.7,4c0,2.2,1.5,4,3.7,4
					C33.6,56.8,35.1,55,35.1,52.8z"/>
				<path class="st0" d="M63.5,53c-0.8,3.7-4.4,6.6-9,6.6c-6.2,0-10-4.7-10-10c0-5.2,3.7-10,9.7-10c5.7,0,8.8,3.3,9.4,7.4h-3.3
					c-0.5-2.6-2.5-4.6-5.7-4.6c-4.4,0-6.9,3.4-6.9,7.2c0,3.9,2.6,7.2,7.2,7.2c2.2,0,4.6-1.6,5.2-3.8H63.5z"/>
				<path class="st0" d="M64.6,52.8c0-3.6,2.6-6.7,6.7-6.7c4.1,0,6.7,3.1,6.7,6.7c0,3.6-2.6,6.7-6.7,6.7
					C67.3,59.4,64.6,56.4,64.6,52.8z M75,52.8c0-2.2-1.5-4-3.8-4c-2.2,0-3.7,1.9-3.7,4c0,2.2,1.5,4,3.7,4C73.6,56.8,75,55,75,52.8z"
					/>
				<path class="st0" d="M79.5,46.4h3v1.8c0.8-1.4,2.3-2.1,4.1-2.1c1.8,0,3.1,0.7,3.8,1.7c0.6,1,0.8,2,0.8,3.8v7.5h-3v-6.6
					c0-2.2-0.6-3.8-2.8-3.8c-2.1,0-3.1,1.7-3.1,3.8v6.6h-3V46.4z"/>
				<path class="st0" d="M93.4,46.4h3v1.8c0.8-1.4,2.3-2.1,4.1-2.1c1.8,0,3.1,0.7,3.8,1.7c0.6,1,0.8,2,0.8,3.8v7.5h-3v-6.6
					c0-2.2-0.6-3.8-2.8-3.8c-2.1,0-3.1,1.7-3.1,3.8v6.6h-3V46.4z"/>
				<path class="st0" d="M109.8,53.7c0,1.8,0.9,3.3,3.3,3.3c1.7,0,2.3-0.8,2.7-1.7h3c-0.4,2.2-2.5,4.1-5.7,4.1
					c-4.3,0-6.3-3.2-6.3-6.7c0-3.8,2.3-6.7,6.3-6.7c3.3,0,5.9,2.5,5.9,5.7c0,0.4,0,1-0.1,1.9H109.8z M109.8,51.5h6.2
					c0-1.8-1.3-2.9-3.1-2.9C111.2,48.6,109.8,49.6,109.8,51.5z"/>
				<path class="st0" d="M129.6,51.1c-0.2-1.4-1-2.3-3-2.3c-2.3,0-3.4,1.9-3.4,4c0,2.2,1,4,3.6,4c1.7,0,2.5-0.8,2.8-2h3
					c-0.4,2.6-2.3,4.7-6,4.7c-4.1,0-6.3-3.2-6.3-6.7c0-3.4,2.2-6.7,6.3-6.7c4.1,0,5.8,2.5,6,5H129.6z"/>
				<path class="st0" d="M142.1,59.1c-0.5,0.1-1.3,0.2-2.2,0.2c-1.4,0-4.1-0.2-4.1-4.5v-5.9h-2.2v-2.5h2.2v-3.8h3v3.8h2.9v2.5h-2.9
					v5.2c0,2.2,0.7,2.5,1.9,2.5c0.5,0,1.2-0.1,1.5-0.1V59.1z"/>
			</g>
		</g>
	</g>
	<g>
		<path d="M0.6,0h2.5c2,0,2.4,1.3,2.4,2.1c0,1-0.7,1.4-1.2,1.6c0.4,0.1,1.2,0.5,1.2,1.6c0,0.8-0.3,2.1-2.4,2.1H0.6V0z M3.2,3.1
			c1,0,1.2-0.6,1.2-1c0-0.4-0.2-1-1.2-1H1.8v2H3.2z M1.8,4.2v2.1h1.4c1,0,1.2-0.7,1.2-1.1c0-0.4-0.2-1.1-1.2-1.1H1.8z"/>
		<path d="M7.6,1.1v2.1h3.1v1.1H7.6v2h3.1v1.1H6.4V0h4.3v1.1H7.6z"/>
		<path d="M13.3,1.1h-1.8V0h4.9v1.1h-1.8v6.3h-1.2V1.1z"/>
		<path d="M20.4,7.4l-0.3-0.9h-2.8L17,7.4h-1.3L18.3,0h0.9l2.6,7.4H20.4z M18.7,2l-1,3.4h2L18.7,2z"/>
	</g>
</g>
</svg>
